<svg width="128" height="128" viewBox="0 0 128 128" fill="none" xmlns="http://www.w3.org/2000/svg">
<path d="M20.2738 103.71L22.7738 108.04L27.1039 105.54L38.0275 99.2335L37.638 100.687L36.3439 105.517L41.1736 106.811L50.2404 109.24L55.07 110.534L56.3641 105.705L64.3151 76.0313L65.6092 71.2017L60.7796 69.9076L31.1062 61.9566L26.2766 60.6625L24.9825 65.4922L22.553 74.559L21.259 79.3887L26.0886 80.6827L27.542 81.0722L16.6185 87.3789L12.2883 89.8789L14.7883 94.2091L20.2738 103.71Z" fill="black" stroke="#C9E677" stroke-width="10"/>
<path d="M112.664 93.9327L115.164 89.6026L110.834 87.1026L99.9104 80.7959L101.364 80.4064L106.194 79.1123L104.899 74.2827L102.47 65.2159L101.176 60.3862L96.3462 61.6803L66.6729 69.6313L61.8433 70.9254L63.1374 75.755L71.0883 105.428L72.3824 110.258L77.2121 108.964L86.2789 106.534L91.1085 105.24L89.8144 100.411L89.425 98.9572L100.349 105.264L104.679 107.764L107.179 103.434L112.664 93.9327Z" fill="black" stroke="#C9E677" stroke-width="10"/>
<path d="M58.5232 19L53.5232 19L53.5232 24L53.5232 36.3608L52.5574 35.395L49.0219 31.8595L45.4864 35.395L38.9169 41.9645L35.3814 45.5L38.9169 49.0355L60.4169 70.5355L63.9525 74.0711L67.488 70.5355L88.988 49.0355L92.5235 45.5L88.988 41.9645L82.4186 35.395L78.883 31.8595L75.3475 35.395L74.3818 36.3608L74.3818 24L74.3818 19L69.3818 19L58.5232 19Z" fill="black" stroke="#C9E677" stroke-width="10"/>
<path d="M51.9426 80.75L64.5 59L77.0574 80.75L51.9426 80.75Z" stroke="black" stroke-width="10"/>
</svg>
